<?xml version="1.0" standalone="no"?>
<!DOCTYPE svg PUBLIC "-//W3C//DTD SVG 20010904//EN"
 "http://www.w3.org/TR/2001/REC-SVG-20010904/DTD/svg10.dtd">
<svg version="1.0" xmlns="http://www.w3.org/2000/svg"
 width="558.000000pt" height="105.000000pt" viewBox="0 0 558.000000 105.000000"
 preserveAspectRatio="xMidYMid meet">

<g transform="translate(0.000000,105.000000) scale(0.100000,-0.100000)"
fill="#000000" stroke="none">
<path d="M545 820 c-110 -23 -202 -77 -230 -136 -21 -45 -16 -120 11 -161 l18
-28 7 38 c7 43 39 81 89 107 52 26 85 31 180 31 134 0 230 -30 298 -95 48 -45
62 -77 62 -144 0 -50 -5 -66 -30 -101 -80 -109 -252 -162 -462 -140 -182 18
-307 74 -402 180 -49 54 -49 54 -43 21 21 -104 114 -221 222 -279 117 -62 193
-78 360 -78 129 0 160 3 225 23 204 64 315 165 356 321 63 249 -180 454 -533
450 -48 -1 -106 -5 -128 -9z"/>
<path d="M1565 758 c-2 -7 -43 -120 -90 -251 -47 -131 -85 -243 -85 -248 0 -6
20 -9 47 -7 48 3 48 3 67 56 l19 52 113 0 113 0 17 -55 18 -55 48 0 c32 0 48
4 48 13 0 7 -40 123 -88 257 l-88 245 -67 3 c-48 2 -69 -1 -72 -10z m115 -202
l39 -116 -84 0 -84 0 41 121 c22 66 42 118 44 116 3 -2 22 -56 44 -121z"/>
<path d="M2190 680 l0 -91 -30 22 c-60 45 -163 21 -210 -48 -20 -29 -26 -51
-28 -112 -4 -100 22 -155 88 -188 57 -29 86 -29 144 2 45 24 46 24 46 4 0 -18
5 -20 43 -17 l42 3 3 258 2 257 -50 0 -50 0 0 -90z m-33 -145 c49 -34 50 -147
3 -190 -53 -48 -136 -6 -147 73 -13 99 72 168 144 117z"/>
<path d="M2750 725 l0 -45 50 0 50 0 0 45 0 45 -50 0 -50 0 0 -45z"/>
<path d="M3008 628 c-53 -14 -88 -59 -88 -112 0 -58 25 -79 130 -108 62 -17
86 -29 88 -41 10 -52 -73 -64 -145 -22 l-43 26 -24 -28 c-28 -33 -23 -44 38
-76 56 -29 167 -30 213 -2 63 37 80 128 33 170 -11 10 -57 29 -102 42 -94 27
-107 36 -92 61 17 26 88 28 130 3 l35 -21 24 28 c22 25 22 28 8 45 -18 20
-104 48 -142 46 -14 -1 -43 -6 -63 -11z"/>
<path d="M3405 625 c-102 -36 -153 -166 -106 -270 55 -123 217 -152 312 -56
77 77 77 205 0 282 -55 56 -129 71 -206 44z m114 -79 c71 -37 68 -181 -4 -214
-73 -33 -135 18 -135 110 1 51 18 86 51 104 31 17 54 17 88 0z"/>
<path d="M2340 623 c0 -4 27 -90 61 -191 l61 -183 56 3 57 3 62 180 c34 99 62
183 63 188 0 4 -20 7 -45 7 -53 0 -49 7 -98 -167 -18 -62 -34 -113 -37 -113
-3 0 -23 62 -45 138 l-40 137 -47 3 c-27 2 -48 -1 -48 -5z"/>
<path d="M2750 440 l0 -191 48 3 47 3 0 185 0 185 -47 3 -48 3 0 -191z"/>
<path d="M3851 604 c-30 -25 -31 -25 -31 -5 0 18 -6 21 -45 21 l-45 0 2 -182
3 -183 48 -3 47 -3 0 119 c0 106 2 122 21 146 16 21 29 26 64 26 41 0 43 1 50
36 8 43 -3 54 -52 54 -19 0 -43 -10 -62 -26z"/>
</g>
</svg>
